# xmcd
#
# Track frame offsets: 
#        183
#        20448
#        31590
#        45310
#        57975
#        70820
#        80763
#        92978
#        104840
#        118298
#        132448
#        144365
#        159110
#        171865
#        184710
#        195525
#        209598
#        217710
#        231898
#        242123
#
# Disc length: 3376 seconds
#
# Revision: 4
# Processed by: cddbd v1.5.2PL0 Copyright (c) Steve Scherf et al.
# Submitted via: ExactAudioCopy v1.0b3
#
DISCID=190d2e14
DTITLE=Lowell Fulson - Rollin' Blues
DYEAR=1991
DGENRE=Blues
TTITLE0=I Want To Know
TTITLE1=Rock 'Em Dead
TTITLE2=Lovin' You
TTITLE3=It's A Long Time
TTITLE4=Rollin' Blues
TTITLE5=Love 'n' Things
TTITLE6=Swingin' Party
TTITLE7=It Took a Long Time
TTITLE8=Hung Down Head
TTITLE9=Someday Baby
TTITLE10=That's Alright
TTITLE11=I Want To Make Love To You
TTITLE12=I'm Glad You Reconsider It
TTITLE13=Lonely Hours
TTITLE14=Comin' Home Someday
TTITLE15=Have You Changed Your Mind
TTITLE16=Rock This Mornin'
TTITLE17=Worry Worry
TTITLE18=K.C. Bound
TTITLE19=So Many Tears
EXTD=YEAR: 1989
EXTT0=
EXTT1=
EXTT2=
EXTT3=
EXTT4=
EXTT5=
EXTT6=
EXTT7=
EXTT8=
EXTT9=
EXTT10=
EXTT11=
EXTT12=
EXTT13=
EXTT14=
EXTT15=
EXTT16=
EXTT17=
EXTT18=
EXTT19=
PLAYORDER=
